<svg width="512" height="512" viewBox="0 0 512 512" fill="none" xmlns="http://www.w3.org/2000/svg">
  <!-- Background Circle -->
  <circle cx="256" cy="256" r="240" fill="#1a73e8" stroke="#ffffff" stroke-width="8"/>
  
  <!-- Water Tank Base -->
  <rect x="180" y="200" width="152" height="180" rx="8" fill="#ffffff" stroke="#1a73e8" stroke-width="4"/>
  
  <!-- Water Level -->
  <rect x="190" y="320" width="132" height="50" rx="4" fill="#4fc3f7"/>
  
  <!-- Water Ripples -->
  <path d="M200 340 Q220 330 240 340 T280 340" stroke="#ffffff" stroke-width="2" fill="none" opacity="0.8"/>
  <path d="M210 350 Q230 340 250 350 T290 350" stroke="#ffffff" stroke-width="2" fill="none" opacity="0.6"/>
  
  <!-- Tank Lid -->
  <rect x="170" y="180" width="172" height="20" rx="10" fill="#ffffff" stroke="#1a73e8" stroke-width="4"/>
  
  <!-- Smart Sensor/Indicator -->
  <circle cx="256" cy="190" r="12" fill="#4caf50"/>
  <circle cx="256" cy="190" r="8" fill="#ffffff"/>
  
  <!-- Water Drops -->
  <path d="M120 280 Q125 270 130 280 Q135 290 130 300 Q125 310 120 300 Q115 290 120 280 Z" fill="#4fc3f7"/>
  <path d="M380 300 Q385 290 390 300 Q395 310 390 320 Q385 330 380 320 Q375 310 380 300 Z" fill="#4fc3f7"/>
  
  <!-- EmptyIdea Brand Text -->
  <text x="256" y="450" text-anchor="middle" font-family="Arial, sans-serif" font-size="24" font-weight="bold" fill="#ffffff">EmptyIdea</text>
</svg>