<svg width="192" height="192" viewBox="0 0 192 192" fill="none" xmlns="http://www.w3.org/2000/svg">
  <!-- Background Circle -->
  <circle cx="96" cy="96" r="90" fill="#1a73e8" stroke="#ffffff" stroke-width="3"/>
  
  <!-- Water Tank Base -->
  <rect x="68" y="75" width="56" height="68" rx="3" fill="#ffffff" stroke="#1a73e8" stroke-width="2"/>
  
  <!-- Water Level -->
  <rect x="72" y="120" width="48" height="18" rx="2" fill="#4fc3f7"/>
  
  <!-- Water Ripples -->
  <path d="M76 128 Q84 125 92 128 T108 128" stroke="#ffffff" stroke-width="1" fill="none" opacity="0.8"/>
  <path d="M80 132 Q88 129 96 132 T112 132" stroke="#ffffff" stroke-width="1" fill="none" opacity="0.6"/>
  
  <!-- Tank Lid -->
  <rect x="64" y="68" width="64" height="7" rx="4" fill="#ffffff" stroke="#1a73e8" stroke-width="2"/>
  
  <!-- Smart Sensor/Indicator -->
  <circle cx="96" cy="71" r="4" fill="#4caf50"/>
  <circle cx="96" cy="71" r="3" fill="#ffffff"/>
  
  <!-- Water Drops -->
  <path d="M45 105 Q47 100 49 105 Q51 110 49 115 Q47 120 45 115 Q43 110 45 105 Z" fill="#4fc3f7"/>
  <path d="M143 112 Q145 107 147 112 Q149 117 147 122 Q145 127 143 122 Q141 117 143 112 Z" fill="#4fc3f7"/>
  
  <!-- EmptyIdea Brand Text -->
  <text x="96" y="170" text-anchor="middle" font-family="Arial, sans-serif" font-size="9" font-weight="bold" fill="#ffffff">EmptyIdea</text>
</svg>